<svg viewBox="0 0 800 500" xmlns="http://www.w3.org/2000/svg">
<rect width="800" height="500" rx="0" fill="#F5F6F0"/>
<circle cx="620" cy="130" r="46" fill="#FFD23F" opacity="0.75"/>
<path d="M60 400 Q400 350 740 400 L740 420 Q400 380 60 420 Z" fill="#E7F0EA"/>
<path d="M330 200 L330 380" stroke="#1F4E38" stroke-width="6"/>
<path d="M330 200 Q230 210 220 300 Q330 260 440 300 Q430 210 330 200 Z" fill="#E7F0EA" stroke="#2F6F4F" stroke-width="3"/>
<path d="M215 380 L330 340 L330 380 Z" fill="#FFFFFF" stroke="#1F4E38" stroke-width="2.5"/>
<rect x="140" y="370" width="70" height="14" rx="7" fill="#FFFFFF" stroke="#1F4E38" stroke-width="2.5"/>
<rect x="500" y="330" width="22" height="22" rx="5" fill="#FFFFFF" stroke="#2F6F4F" stroke-width="2.5"/><path d="M505 341 L509 346 L517 336" fill="none" stroke="#2F6F4F" stroke-width="3" stroke-linecap="round" stroke-linejoin="round"/>
<rect x="500" y="370" width="22" height="22" rx="5" fill="#FFFFFF" stroke="#2F6F4F" stroke-width="2.5"/>
<line x1="532" y1="341" x2="640" y2="341" stroke="#DBDCCF" stroke-width="2" stroke-dasharray="6 6"/>
<line x1="532" y1="381" x2="600" y2="381" stroke="#DBDCCF" stroke-width="2" stroke-dasharray="6 6"/>
</svg>
