<svg viewBox="0 0 800 500" xmlns="http://www.w3.org/2000/svg">
<rect width="800" height="500" rx="0" fill="#F5F6F0"/>
<circle cx="640" cy="110" r="60" fill="#FFD23F" opacity="0.35"/>
<path d="M120 380 L280 180 L440 380 Z" fill="#E7F0EA" stroke="#2F6F4F" stroke-width="3"/>
<path d="M280 180 L280 380" stroke="#2F6F4F" stroke-width="2" opacity="0.5"/>
<path d="M235 380 L280 300 L325 380 Z" fill="#F5F6F0" stroke="#1F4E38" stroke-width="2.5"/>
<path d="M330 380 L470 220 L610 380 Z" fill="#E7F0EA" stroke="#2F6F4F" stroke-width="3"/>
<path d="M470 220 L470 380" stroke="#2F6F4F" stroke-width="2" opacity="0.5"/>
<line x1="80" y1="380" x2="680" y2="380" stroke="#1C2B22" stroke-width="3"/>
<circle cx="560" cy="330" r="26" fill="#FFD23F" stroke="#1F4E38" stroke-width="2.5"/>
<path d="M544 330 q16 -22 32 0" fill="none" stroke="#1F4E38" stroke-width="2.5"/>
<rect x="90" y="90" width="22" height="22" rx="5" fill="#FFFFFF" stroke="#2F6F4F" stroke-width="2.5"/><path d="M95 101 L99 106 L107 96" fill="none" stroke="#2F6F4F" stroke-width="3" stroke-linecap="round" stroke-linejoin="round"/>
<rect x="90" y="130" width="22" height="22" rx="5" fill="#FFFFFF" stroke="#2F6F4F" stroke-width="2.5"/>
<line x1="122" y1="101" x2="260" y2="101" stroke="#DBDCCF" stroke-width="2" stroke-dasharray="6 6"/>
<line x1="122" y1="141" x2="220" y2="141" stroke="#DBDCCF" stroke-width="2" stroke-dasharray="6 6"/>
</svg>
